<?xml version="1.0" standalone="no"?>
<!DOCTYPE svg PUBLIC "-//W3C//DTD SVG 20010904//EN"
 "http://www.w3.org/TR/2001/REC-SVG-20010904/DTD/svg10.dtd">
<svg version="1.0" xmlns="http://www.w3.org/2000/svg"
 width="168.000000pt" height="194.000000pt" viewBox="0 0 168.000000 194.000000"
 preserveAspectRatio="xMidYMid meet">
<metadata>
Created by potrace 1.15, written by Peter Selinger 2001-2017
</metadata>
<g transform="translate(0.000000,194.000000) scale(0.100000,-0.100000)"
fill="#000000" stroke="none">
<path d="M50 1530 l0 -370 350 0 350 0 0 370 0 370 -350 0 -350 0 0 -370z
m520 0 l0 -180 -170 0 -170 0 0 180 0 180 170 0 170 0 0 -180z"/>
<path d="M920 1530 l0 -370 355 0 355 0 0 370 0 370 -355 0 -355 0 0 -370z
m528 3 l-3 -178 -170 0 -170 0 -3 178 -2 177 175 0 175 0 -2 -177z"/>
<path d="M47 973 c-4 -3 -7 -35 -7 -69 0 -160 43 -322 121 -461 51 -90 175
-220 264 -278 68 -45 207 -100 278 -110 l47 -7 0 466 0 466 -348 0 c-192 0
-352 -3 -355 -7z m531 -425 c1 -137 0 -248 -4 -248 -20 0 -108 64 -159 115
-96 98 -174 252 -175 348 l0 37 168 -2 167 -3 3 -247z"/>
<path d="M920 515 l0 -465 21 0 c37 0 140 30 207 61 132 59 259 172 345 306
87 133 126 264 134 441 l6 122 -357 0 -356 0 0 -465z m514 277 c12 -19 -26
-148 -66 -224 -47 -92 -152 -206 -226 -246 l-42 -23 0 250 0 251 164 0 c91 0
167 -4 170 -8z"/>
</g>
</svg>
