<?xml version="1.0" encoding="UTF-8" standalone="no"?>
<!DOCTYPE svg PUBLIC "-//W3C//DTD SVG 1.1//EN" "http://www.w3.org/Graphics/SVG/1.1/DTD/svg11.dtd">
<svg version="1.1" xmlns="http://www.w3.org/2000/svg" xmlns:xlink="http://www.w3.org/1999/xlink" preserveAspectRatio="xMidYMid meet" viewBox="0 0 640 640" width="640" height="640"><defs><path d="M33.86 0L57.62 0L57.62 24.95L33.86 24.95L33.86 0Z" id="a51eV2F5vx"></path><path d="M45.74 12.48L69.5 12.48L69.5 37.43L45.74 37.43L45.74 12.48Z" id="b1HHPtZLix"></path><path d="M55.74 22.48L79.5 22.48L79.5 47.43L55.74 47.43L55.74 22.48Z" id="d2aGZvVeoM"></path><path d="M75.64 22.48L99.41 22.48L99.41 47.43L75.64 47.43L75.64 22.48Z" id="c1sCdyp4R4"></path><path d="M13.37 37.43L37.13 37.43L37.13 62.38L13.37 62.38L13.37 37.43Z" id="e6OAJFvY1"></path><path d="M587.72 0L640 0L640 53.66L587.72 53.66L587.72 0Z" id="g2kZOYCEIc"></path><path d="M557.13 20.59L609.41 20.59L609.41 74.26L557.13 74.26L557.13 20.59Z" id="aH7JkTOE5"></path><path d="M519.6 0L571.88 0L571.88 34.95L519.6 34.95L519.6 0Z" id="bxDdtomw8"></path><path d="M567.48 62.38L599.06 62.38L599.06 97.33L567.48 97.33L567.48 62.38Z" id="j1xRB6t0ge"></path><path d="M577.82 83.66L609.41 83.66L609.41 118.61L577.82 118.61L577.82 83.66Z" id="h53OqlDWDw"></path><path d="M0 48.71L31.58 48.71L31.58 83.66L0 83.66L0 48.71Z" id="b1U1zc9ZN5"></path><path d="M1.13 605.05L32.72 605.05L32.72 640L1.13 640L1.13 605.05Z" id="aE4XT7RTs"></path><path d="M610.26 605.05L641.84 605.05L641.84 640L610.26 640L610.26 605.05Z" id="c1mLjnPclg"></path><path d="M595.46 587.57L627.04 587.57L627.04 622.52L595.46 622.52L595.46 587.57Z" id="a3NtlzDj8u"></path><path d="M579.66 570.1L611.25 570.1L611.25 605.05L579.66 605.05L579.66 570.1Z" id="e1m9Fbwbzx"></path><path d="M137.04 79.85L142.82 85.01L102.54 130.15L96.76 125L137.04 79.85Z" id="c3spSTysQf"></path><path d="M119.79 117.57L125.57 122.73L85.28 167.88L79.5 162.72L119.79 117.57Z" id="aF7VL8giu"></path><path d="M573.89 537.27L579.66 542.43L539.38 587.57L533.6 582.42L573.89 537.27Z" id="aDXMO5pIY"></path><path d="M604.48 519.8L610.26 524.95L569.98 570.1L564.2 564.94L604.48 519.8Z" id="bfnLx6Ifn"></path><path d="M126.58 513.17L137.19 523.77L126.58 534.38L115.97 523.78L105.37 534.38L94.76 523.77L105.37 513.17L94.76 502.56L105.37 491.96L115.97 502.56L126.58 491.96L137.19 502.56L126.58 513.17Z" id="a14GJoANJk"></path><path d="M163.31 523.74L173.92 534.34L163.31 544.95L152.71 534.34L142.1 544.95L131.49 534.34L142.1 523.74L131.49 513.13L142.1 502.52L152.7 513.13L163.31 502.52L173.92 513.13L163.31 523.74Z" id="g6TQ0c2Qq"></path><path d="M115.89 548.89L126.49 559.49L115.89 570.1L105.28 559.49L94.67 570.1L84.07 559.49L94.67 548.89L84.07 538.28L94.67 527.67L105.28 538.28L115.89 527.67L126.49 538.28L115.89 548.89Z" id="dPD9n1owf"></path><path d="M283.75 315.58L283.75 274.95L325.28 274.95L325.28 315.58L283.75 315.58ZM294.43 305.15L314.6 305.15L314.6 285.38L294.43 285.38L294.43 305.15Z" id="a1OZ1rJgFv"></path><path d="M335.37 315.78L335.37 275.15L377.49 275.15L377.49 315.78L335.37 315.78ZM346.16 295.3L346.34 305.07L366.51 305.07L366.69 295.3L366.81 285.58L346.04 285.58L346.16 295.3Z" id="f1maTtYiC1"></path><path d="M322.49 376.45L322.1 376.39L321.68 376.32L321.25 376.24L320.8 376.15L320.33 376.04L319.84 375.92L319.35 375.79L318.83 375.66L318.31 375.51L317.78 375.35L317.24 375.19L316.69 375.02L316.14 374.83L315.58 374.65L315.02 374.45L314.46 374.25L313.9 374.05L313.34 373.84L312.78 373.62L312.22 373.4L311.67 373.18L311.13 372.95L310.6 372.72L310.07 372.49L309.56 372.26L309.06 372.03L308.57 371.79L308.09 371.56L307.64 371.33L307.2 371.09L306.78 370.86L306.38 370.64L306 370.41L305.51 370.11L305.02 369.79L304.51 369.45L304 369.09L303.48 368.71L302.95 368.32L302.42 367.91L301.88 367.48L301.35 367.05L300.81 366.6L300.26 366.14L299.72 365.66L299.18 365.18L298.65 364.69L298.11 364.19L297.59 363.69L297.06 363.18L296.55 362.67L296.04 362.15L295.54 361.63L295.05 361.11L294.57 360.59L294.1 360.07L293.65 359.55L293.21 359.04L292.79 358.53L292.38 358.02L291.99 357.52L291.62 357.03L291.27 356.54L290.93 356.07L290.62 355.6L290.34 355.15L289.92 354.45L289.52 353.75L289.13 353.03L288.75 352.32L288.38 351.6L288.02 350.87L287.68 350.13L287.35 349.39L287.02 348.65L286.72 347.9L286.42 347.14L286.14 346.39L285.86 345.62L285.61 344.86L285.36 344.09L285.13 343.31L284.9 342.53L284.7 341.75L284.5 340.97L284.32 340.18L284.15 339.4L283.99 338.61L283.85 337.81L283.72 337.02L283.6 336.22L283.5 335.43L283.41 334.63L283.33 333.83L283.27 333.03L283.22 332.23L283.19 331.43L283.17 330.63L283.16 329.84L283.16 329.67L283.16 329.5L283.16 329.33L283.17 329.16L283.17 329L283.18 328.84L283.18 328.68L283.19 328.52L283.2 328.36L283.2 328.21L283.21 328.06L283.22 327.91L283.23 327.77L283.25 327.63L283.26 327.5L283.27 327.37L283.28 327.24L283.3 327.12L283.31 327L283.33 326.89L283.34 326.79L283.36 326.69L283.38 326.59L283.4 326.51L283.41 326.43L283.43 326.35L283.45 326.29L283.47 326.23L283.49 326.17L283.51 326.13L283.53 326.09L283.55 326.07L283.57 326.05L283.62 326.03L283.71 326.01L283.85 325.99L284.04 325.97L284.27 325.95L284.55 325.93L284.87 325.92L285.24 325.9L285.65 325.88L286.1 325.87L286.58 325.85L287.11 325.83L287.67 325.82L288.26 325.81L288.89 325.79L289.56 325.78L290.25 325.77L290.98 325.75L291.73 325.74L292.51 325.73L293.32 325.72L294.15 325.71L295.01 325.71L295.89 325.7L296.79 325.69L297.71 325.68L298.65 325.68L299.61 325.67L300.59 325.67L301.58 325.67L302.59 325.66L303.61 325.66L304.64 325.66L325.28 325.66L325.28 376.83L322.49 376.45ZM295.09 338.6L295.25 339.69L295.52 340.84L295.87 342.03L296.31 343.26L296.83 344.52L297.43 345.8L298.1 347.09L298.84 348.38L299.63 349.66L300.49 350.93L301.39 352.17L302.34 353.37L303.33 354.53L304.35 355.64L305.41 356.68L306 357.22L306.63 357.76L307.3 358.31L307.99 358.85L308.7 359.39L309.41 359.91L310.12 360.41L310.81 360.89L311.49 361.33L312.13 361.74L312.73 362.1L313.29 362.4L313.79 362.65L314.22 362.84L314.57 362.96L314.84 363L314.87 362.94L314.89 362.78L314.92 362.52L314.94 362.15L314.96 361.67L314.98 361.08L315 360.39L315.02 359.59L315.03 358.69L315.04 357.68L315.05 356.56L315.06 355.34L315.07 354.01L315.07 352.57L315.08 351.03L315.08 349.38L314.9 335.82L304.99 335.66L295.02 335.55L295.02 337.58L295.09 338.6Z" id="argBlU2bl"></path><path d="M377.26 333.24L377.2 334.1L377.13 334.95L377.05 335.79L376.96 336.61L376.86 337.43L376.75 338.23L376.63 339.02L376.49 339.8L376.34 340.57L376.18 341.33L376.01 342.09L375.83 342.83L375.63 343.57L375.43 344.3L375.21 345.02L374.97 345.73L374.73 346.44L374.47 347.14L374.19 347.83L373.91 348.52L373.61 349.21L373.3 349.89L372.97 350.57L372.63 351.24L372.27 351.92L371.9 352.59L371.51 353.25L371.11 353.92L370.7 354.58L370.27 355.25L369.82 355.91L369.36 356.57L368.89 357.24L368.41 357.9L367.91 358.55L367.4 359.2L366.88 359.83L366.35 360.46L365.8 361.08L365.25 361.7L364.69 362.3L364.11 362.89L363.53 363.48L362.93 364.06L362.33 364.62L361.72 365.18L361.09 365.72L360.47 366.26L359.83 366.78L359.19 367.29L358.54 367.79L357.88 368.28L357.21 368.75L356.55 369.21L355.87 369.66L355.19 370.1L354.5 370.52L353.81 370.93L353.12 371.32L352.42 371.7L351.72 372.07L351.02 372.42L350.31 372.75L349.6 373.07L348.89 373.37L348.52 373.53L348.15 373.68L347.76 373.84L347.36 373.99L346.96 374.14L346.55 374.29L346.13 374.43L345.71 374.58L345.29 374.72L344.86 374.86L344.43 375L344 375.13L343.57 375.26L343.14 375.39L342.72 375.51L342.29 375.63L341.88 375.74L341.46 375.85L341.06 375.96L340.66 376.05L340.27 376.15L339.89 376.23L339.52 376.31L339.16 376.39L338.81 376.46L338.48 376.52L338.16 376.57L337.86 376.62L337.57 376.65L337.3 376.68L337.05 376.71L336.82 376.72L336.61 376.72L335.37 376.72L335.37 325.66L377.66 325.66L377.31 332.36L377.26 333.24ZM346.04 363.05L348.54 361.79L349.38 361.33L350.26 360.79L351.16 360.16L352.09 359.46L353.03 358.7L353.97 357.88L354.91 357.02L355.84 356.11L356.75 355.17L357.63 354.2L358.48 353.21L359.29 352.22L360.05 351.22L360.75 350.22L361.38 349.24L361.94 348.28L362.39 347.47L362.82 346.6L363.25 345.69L363.66 344.75L364.05 343.79L364.41 342.83L364.75 341.89L365.06 340.96L365.33 340.07L365.56 339.23L365.74 338.46L365.88 337.76L365.97 337.15L365.99 336.64L365.96 336.25L365.86 335.98L365.78 335.94L365.6 335.9L365.32 335.86L364.97 335.82L364.53 335.79L364.01 335.75L363.43 335.72L362.77 335.68L362.06 335.65L361.29 335.63L360.47 335.6L359.6 335.58L358.69 335.57L357.75 335.56L356.77 335.55L355.77 335.55L346.04 335.55L346.04 363.05Z" id="c1aTyvc0f3"></path><path d="M535.93 161.78L546.53 172.39L535.93 183L525.32 172.39L514.71 183L504.11 172.39L514.72 161.78L504.11 151.18L514.71 140.57L525.32 151.18L535.93 140.57L546.53 151.18L535.93 161.78Z" id="b32ecMRMHp"></path><path d="M572.66 172.35L583.27 182.96L572.66 193.56L562.05 182.96L551.45 193.56L540.84 182.96L551.45 172.35L540.84 161.74L551.45 151.14L562.05 161.74L572.66 151.14L583.27 161.74L572.66 172.35Z" id="f799aIIJn"></path><path d="M525.24 197.5L535.84 208.11L525.23 218.71L514.63 208.11L504.02 218.71L493.42 208.11L504.02 197.5L493.42 186.89L504.02 176.29L514.63 186.89L525.23 176.29L535.84 186.89L525.24 197.5Z" id="a1PNvV8bY4"></path><path d="M20.51 295.64L72.79 295.64L72.79 349.3L20.51 349.3L20.51 295.64Z" id="a3IPZTrL7n"></path><path d="M-10.08 316.23L42.2 316.23L42.2 369.9L-10.08 369.9L-10.08 316.23Z" id="a1x2b3VPJL"></path><path d="M-47.61 295.64L4.67 295.64L4.67 330.59L-47.61 330.59L-47.61 295.64Z" id="b3WAPfAC0f"></path><path d="M0.27 358.02L31.85 358.02L31.85 392.97L0.27 392.97L0.27 358.02Z" id="f14IwOPUDU"></path><path d="M10.61 379.3L42.2 379.3L42.2 414.25L10.61 414.25L10.61 379.3Z" id="c1HDeLLNFE"></path><path d="M651.39 312.56L703.66 312.56L703.66 366.22L651.39 366.22L651.39 312.56Z" id="f2jkLmleK1"></path><path d="M620.79 333.15L673.07 333.15L673.07 386.82L620.79 386.82L620.79 333.15Z" id="b3yV4VIzj"></path><path d="M583.27 312.56L635.54 312.56L635.54 347.51L583.27 347.51L583.27 312.56Z" id="aAT2y9faA"></path><path d="M631.14 374.93L662.72 374.93L662.72 409.88L631.14 409.88L631.14 374.93Z" id="b1ChvBDgYR"></path><path d="M641.49 396.22L673.07 396.22L673.07 431.17L641.49 431.17L641.49 396.22Z" id="dtaIkXi9w"></path><path d="M469.65 438.82L493.42 438.82L493.42 463.77L469.65 463.77L469.65 438.82Z" id="jYBXSjRQV"></path><path d="M456.29 450.11L487.87 450.11L487.87 485.06L456.29 485.06L456.29 450.11Z" id="b5yHxBfkmt"></path></defs><g><g><g><use xlink:href="#a51eV2F5vx" opacity="1" fill="#14cea5" fill-opacity="1"></use></g><g><use xlink:href="#b1HHPtZLix" opacity="1" fill="#14cea5" fill-opacity="1"></use></g><g><use xlink:href="#d2aGZvVeoM" opacity="1" fill="#14cea5" fill-opacity="1"></use></g><g><use xlink:href="#c1sCdyp4R4" opacity="1" fill="#14cea5" fill-opacity="1"></use></g><g><use xlink:href="#e6OAJFvY1" opacity="1" fill="#14cea5" fill-opacity="1"></use></g><g><use xlink:href="#g2kZOYCEIc" opacity="1" fill="#14cea5" fill-opacity="1"></use></g><g><use xlink:href="#aH7JkTOE5" opacity="1" fill="#14cea5" fill-opacity="1"></use></g><g><use xlink:href="#bxDdtomw8" opacity="1" fill="#14cea5" fill-opacity="1"></use></g><g><use xlink:href="#j1xRB6t0ge" opacity="1" fill="#14cea5" fill-opacity="1"></use></g><g><use xlink:href="#h53OqlDWDw" opacity="1" fill="#14cea5" fill-opacity="1"></use></g><g><use xlink:href="#b1U1zc9ZN5" opacity="1" fill="#14cea5" fill-opacity="1"></use></g><g><use xlink:href="#aE4XT7RTs" opacity="1" fill="#14cea5" fill-opacity="1"></use></g><g><use xlink:href="#c1mLjnPclg" opacity="1" fill="#14cea5" fill-opacity="1"></use></g><g><use xlink:href="#a3NtlzDj8u" opacity="1" fill="#14cea5" fill-opacity="1"></use></g><g><use xlink:href="#e1m9Fbwbzx" opacity="1" fill="#14cea5" fill-opacity="1"></use></g><g><use xlink:href="#c3spSTysQf" opacity="1" fill="#62eacc" fill-opacity="1"></use></g><g><use xlink:href="#aF7VL8giu" opacity="1" fill="#62eacc" fill-opacity="1"></use></g><g><use xlink:href="#aDXMO5pIY" opacity="1" fill="#62eacc" fill-opacity="1"></use></g><g><use xlink:href="#bfnLx6Ifn" opacity="1" fill="#62eacc" fill-opacity="1"></use></g><g><use xlink:href="#a14GJoANJk" opacity="1" fill="#15cfa6" fill-opacity="1"></use></g><g><use xlink:href="#g6TQ0c2Qq" opacity="1" fill="#15cfa6" fill-opacity="1"></use></g><g><use xlink:href="#dPD9n1owf" opacity="1" fill="#15cfa6" fill-opacity="1"></use></g><g><use xlink:href="#a1OZ1rJgFv" opacity="1" fill="#14cea5" fill-opacity="1"></use><g><use xlink:href="#a1OZ1rJgFv" opacity="1" fill-opacity="0" stroke="#000000" stroke-width="1" stroke-opacity="0"></use></g></g><g><use xlink:href="#f1maTtYiC1" opacity="1" fill="#14cea5" fill-opacity="1"></use><g><use xlink:href="#f1maTtYiC1" opacity="1" fill-opacity="0" stroke="#000000" stroke-width="1" stroke-opacity="0"></use></g></g><g><use xlink:href="#argBlU2bl" opacity="1" fill="#14cea5" fill-opacity="1"></use><g><use xlink:href="#argBlU2bl" opacity="1" fill-opacity="0" stroke="#000000" stroke-width="1" stroke-opacity="0"></use></g></g><g><use xlink:href="#c1aTyvc0f3" opacity="1" fill="#13cea4" fill-opacity="0.7"></use><g><use xlink:href="#c1aTyvc0f3" opacity="1" fill-opacity="0" stroke="#000000" stroke-width="1" stroke-opacity="0"></use></g></g><g><use xlink:href="#b32ecMRMHp" opacity="1" fill="#15cfa6" fill-opacity="0.41"></use></g><g><use xlink:href="#f799aIIJn" opacity="1" fill="#15cfa6" fill-opacity="0.41"></use></g><g><use xlink:href="#a1PNvV8bY4" opacity="1" fill="#15cfa6" fill-opacity="0.41"></use></g><g><use xlink:href="#a3IPZTrL7n" opacity="1" fill="#14cea5" fill-opacity="1"></use></g><g><use xlink:href="#a1x2b3VPJL" opacity="1" fill="#14cea5" fill-opacity="1"></use></g><g><use xlink:href="#b3WAPfAC0f" opacity="1" fill="#14cea5" fill-opacity="1"></use></g><g><use xlink:href="#f14IwOPUDU" opacity="1" fill="#14cea5" fill-opacity="1"></use></g><g><use xlink:href="#c1HDeLLNFE" opacity="1" fill="#14cea5" fill-opacity="1"></use></g><g><use xlink:href="#f2jkLmleK1" opacity="1" fill="#14cea5" fill-opacity="1"></use></g><g><use xlink:href="#b3yV4VIzj" opacity="1" fill="#14cea5" fill-opacity="1"></use></g><g><use xlink:href="#aAT2y9faA" opacity="1" fill="#14cea5" fill-opacity="1"></use></g><g><use xlink:href="#b1ChvBDgYR" opacity="1" fill="#14cea5" fill-opacity="1"></use></g><g><use xlink:href="#dtaIkXi9w" opacity="1" fill="#14cea5" fill-opacity="1"></use></g><g><use xlink:href="#jYBXSjRQV" opacity="1" fill="#14cea5" fill-opacity="1"></use></g><g><use xlink:href="#b5yHxBfkmt" opacity="1" fill="#14cea5" fill-opacity="1"></use></g></g></g></svg>