<?xml version="1.0" encoding="utf-8"?>
<svg xmlns="http://www.w3.org/2000/svg" style="margin: auto; background: rgba(255, 251, 243, 0); display: block; shape-rendering: auto;" width="290" height="250" preserveAspectRatio="xMidYMid">
<style type="text/css">
  text {
    text-anchor: middle; font-size: 48px; opacity: 0;
  }
</style>
<g transform="translate(145,125)">
  <g transform="translate(0,0)"><g class="path" style="transform-origin: -313.835px -2.72311px; animation: 0.5s linear -0.314286s infinite normal forwards running tremble-9e637120-b5d5-4f58-848e-8b98eb7e7876; transform: matrix(1, 0, 0, 1, 0, 0);"><path d="M4.32-0.10L4.32-33.50L4.32-33.50Q6.58-33.74 8.74-33.86L8.74-33.86L8.74-33.86Q10.90-33.98 13.68-33.98L13.68-33.98L13.68-33.98Q18-33.98 21.12-32.64L21.12-32.64L21.12-32.64Q24.24-31.30 26.30-28.94L26.30-28.94L26.30-28.94Q28.37-26.59 29.35-23.47L29.35-23.47L29.35-23.47Q30.34-20.35 30.34-16.85L30.34-16.85L30.34-16.85Q30.34-13.34 29.33-10.20L29.33-10.20L29.33-10.20Q28.32-7.06 26.23-4.70L26.23-4.70L26.23-4.70Q24.14-2.35 20.90-0.98L20.90-0.98L20.90-0.98Q17.66 0.38 13.15 0.38L13.15 0.38L13.15 0.38Q10.42 0.38 8.38 0.26L8.38 0.26L8.38 0.26Q6.34 0.14 4.32-0.10L4.32-0.10zM13.54-30.05L13.54-30.05L13.54-30.05Q12.14-30.05 10.99-29.98L10.99-29.98L10.99-29.98Q9.84-29.90 8.88-29.81L8.88-29.81L8.88-3.84L8.88-3.84Q9.89-3.70 10.99-3.65L10.99-3.65L10.99-3.65Q12.10-3.60 13.30-3.60L13.30-3.60L13.30-3.60Q16.51-3.60 18.86-4.58L18.86-4.58L18.86-4.58Q21.22-5.57 22.73-7.32L22.73-7.32L22.73-7.32Q24.24-9.07 24.96-11.50L24.96-11.50L24.96-11.50Q25.68-13.92 25.68-16.85L25.68-16.85L25.68-16.85Q25.68-19.44 24.96-21.82L24.96-21.82L24.96-21.82Q24.24-24.19 22.75-26.04L22.75-26.04L22.75-26.04Q21.26-27.89 18.96-28.97L18.96-28.97L18.96-28.97Q16.66-30.05 13.54-30.05" fill="#199037" stroke="none" stroke-width="none" transform="translate(-331.4900150299072,14.268823827107754)" style="fill: rgb(25, 144, 55);"></path></g><g class="path" style="transform-origin: -284.526px -3.35617px; animation: 0.5s linear -0.298571s infinite normal forwards running tremble-9e637120-b5d5-4f58-848e-8b98eb7e7876; transform: matrix(1, 0, 0, 1, 0, 0);"><path d="M39.79-16.85L39.79-16.85L39.79-16.85Q39.79-13.82 40.58-11.35L40.58-11.35L40.58-11.35Q41.38-8.88 42.79-7.10L42.79-7.10L42.79-7.10Q44.21-5.33 46.18-4.37L46.18-4.37L46.18-4.37Q48.14-3.41 50.50-3.41L50.50-3.41L50.50-3.41Q52.85-3.41 54.58-3.96L54.58-3.96L54.58-3.96Q56.30-4.51 57.94-5.47L57.94-5.47L59.33-1.68L59.33-1.68Q57.55-0.72 55.27-0.07L55.27-0.07L55.27-0.07Q52.99 0.58 49.97 0.58L49.97 0.58L49.97 0.58Q46.66 0.58 43.94-0.62L43.94-0.62L43.94-0.62Q41.23-1.82 39.26-4.06L39.26-4.06L39.26-4.06Q37.30-6.29 36.22-9.48L36.22-9.48L36.22-9.48Q35.14-12.67 35.14-16.66L35.14-16.66L35.14-16.66Q35.14-20.50 36.22-23.71L36.22-23.71L36.22-23.71Q37.30-26.93 39.31-29.26L39.31-29.26L39.31-29.26Q41.33-31.58 44.18-32.88L44.18-32.88L44.18-32.88Q47.04-34.18 50.54-34.18L50.54-34.18L50.54-34.18Q52.99-34.18 54.94-33.72L54.94-33.72L54.94-33.72Q56.88-33.26 58.61-32.45L58.61-32.45L57.22-28.61L57.22-28.61Q55.73-29.33 54.17-29.76L54.17-29.76L54.17-29.76Q52.61-30.19 50.50-30.19L50.50-30.19L50.50-30.19Q48.19-30.19 46.22-29.30L46.22-29.30L46.22-29.30Q44.26-28.42 42.82-26.69L42.82-26.69L42.82-26.69Q41.38-24.96 40.58-22.49L40.58-22.49L40.58-22.49Q39.79-20.02 39.79-16.85" fill="#199037" stroke="none" stroke-width="none" transform="translate(-331.4900150299072,14.268823827107754)" style="fill: rgb(25, 144, 55);"></path></g><g class="path" style="transform-origin: -248.476px -1.31784px; animation: 0.5s linear -0.282857s infinite normal forwards running tremble-9e637120-b5d5-4f58-848e-8b98eb7e7876; transform: matrix(1, 0, 0, 1, 0, 0);"><path d="M84.72 4.80L80.98 4.80L80.98-36.96L84.72-36.96L84.72 4.80" fill="#199037" stroke="none" stroke-width="none" transform="translate(-331.4900150299072,14.268823827107754)" style="fill: rgb(25, 144, 55);"></path></g><g class="path" style="transform-origin: -211.775px -2.97213px; animation: 0.5s linear -0.267143s infinite normal forwards running tremble-9e637120-b5d5-4f58-848e-8b98eb7e7876; transform: matrix(1, 0, 0, 1, 0, 0);"><path d="M108.82 0.38L104.93-1.20L118.08-33.60L123.07-33.60L136.03-1.20L131.86 0.48L128.11-9.12L112.56-9.12L108.82 0.38zM120.34-29.09L114.00-12.96L126.62-12.96L120.34-29.09" fill="#199037" stroke="none" stroke-width="none" transform="translate(-331.4900150299072,14.268823827107754)" style="fill: rgb(25, 144, 55);"></path></g><g class="path" style="transform-origin: -178.894px -3.24161px; animation: 0.5s linear -0.251429s infinite normal forwards running tremble-9e637120-b5d5-4f58-848e-8b98eb7e7876; transform: matrix(1, 0, 0, 1, 0, 0);"><path d="M140.83 0L140.83-33.50L140.83-33.50Q142.85-33.74 145.18-33.86L145.18-33.86L145.18-33.86Q147.50-33.98 150.10-33.98L150.10-33.98L150.10-33.98Q153.22-33.98 155.66-33.22L155.66-33.22L155.66-33.22Q158.11-32.45 159.79-31.10L159.79-31.10L159.79-31.10Q161.47-29.76 162.34-27.86L162.34-27.86L162.34-27.86Q163.20-25.97 163.20-23.76L163.20-23.76L163.20-23.76Q163.20-21.07 162.17-18.98L162.17-18.98L162.17-18.98Q161.14-16.90 159.29-15.46L159.29-15.46L159.29-15.46Q157.44-14.02 154.85-13.27L154.85-13.27L154.85-13.27Q152.26-12.53 149.14-12.53L149.14-12.53L149.14-12.53Q147.12-12.53 145.39-12.67L145.39-12.67L145.39 0L140.83 0zM149.71-16.32L149.71-16.32L149.71-16.32Q154.03-16.32 156.36-18.22L156.36-18.22L156.36-18.22Q158.69-20.11 158.69-23.38L158.69-23.38L158.69-23.38Q158.69-26.50 156.46-28.32L156.46-28.32L156.46-28.32Q154.22-30.14 150.00-30.14L150.00-30.14L150.00-30.14Q148.70-30.14 147.55-30.10L147.55-30.10L147.55-30.10Q146.40-30.05 145.39-29.95L145.39-29.95L145.39-16.56L145.39-16.56Q146.16-16.46 147.24-16.39L147.24-16.39L147.24-16.39Q148.32-16.32 149.71-16.32" fill="#199037" stroke="none" stroke-width="none" transform="translate(-331.4900150299072,14.268823827107754)" style="fill: rgb(25, 144, 55);"></path></g><g class="path" style="transform-origin: -160.917px -1.77913px; animation: 0.5s linear -0.235714s infinite normal forwards running tremble-9e637120-b5d5-4f58-848e-8b98eb7e7876; transform: matrix(1, 0, 0, 1, 0, 0);"><path d="M173.28 0L168.72 0L168.72-33.60L173.28-33.60L173.28 0" fill="#199037" stroke="none" stroke-width="none" transform="translate(-331.4900150299072,14.268823827107754)" style="fill: rgb(25, 144, 55);"></path></g><g class="path" style="transform-origin: -131.627px -2.41838px; animation: 0.5s linear -0.22s infinite normal forwards running tremble-9e637120-b5d5-4f58-848e-8b98eb7e7876; transform: matrix(1, 0, 0, 1, 0, 0);"><path d="M201.07 4.80L197.33 4.80L197.33-36.96L201.07-36.96L201.07 4.80" fill="#199037" stroke="none" stroke-width="none" transform="translate(-331.4900150299072,14.268823827107754)" style="fill: rgb(25, 144, 55);"></path></g><g class="path" style="transform-origin: -88.5146px -2.80506px; animation: 0.5s linear -0.204286s infinite normal forwards running tremble-9e637120-b5d5-4f58-848e-8b98eb7e7876; transform: matrix(1, 0, 0, 1, 0, 0);"><path d="M230.64 0L221.52-32.50L226.03-33.94L233.62-4.85L240.77-30.10L246.48-30.10L253.58-4.85L261.12-33.79L265.34-32.50L256.27 0L250.61 0L243.50-25.25L236.30 0L230.64 0" fill="#199037" stroke="none" stroke-width="none" transform="translate(-331.4900150299072,14.268823827107754)" style="fill: rgb(25, 144, 55);"></path></g><g class="path" style="transform-origin: -50.708px -1.85002px; animation: 0.5s linear -0.188571s infinite normal forwards running tremble-9e637120-b5d5-4f58-848e-8b98eb7e7876; transform: matrix(1, 0, 0, 1, 0, 0);"><path d="M270.38 0L270.38-33.60L290.54-33.60L290.54-29.66L274.94-29.66L274.94-19.44L288.38-19.44L288.38-15.60L274.94-15.60L274.94-3.94L290.54-3.94L290.54 0L270.38 0" fill="#199037" stroke="none" stroke-width="none" transform="translate(-331.4900150299072,14.268823827107754)" style="fill: rgb(25, 144, 55);"></path></g><g class="path" style="transform-origin: -22.8565px -2.68004px; animation: 0.5s linear -0.172857s infinite normal forwards running tremble-9e637120-b5d5-4f58-848e-8b98eb7e7876; transform: matrix(1, 0, 0, 1, 0, 0);"><path d="M297.02-0.10L297.02-33.50L297.02-33.50Q298.70-33.70 301.18-33.84L301.18-33.84L301.18-33.84Q303.65-33.98 306.91-33.98L306.91-33.98L306.91-33.98Q313.10-33.98 316.39-31.68L316.39-31.68L316.39-31.68Q319.68-29.38 319.68-25.34L319.68-25.34L319.68-25.34Q319.68-22.66 318.29-20.83L318.29-20.83L318.29-20.83Q316.90-19.01 314.16-17.81L314.16-17.81L314.16-17.81Q317.42-16.66 319.10-14.64L319.10-14.64L319.10-14.64Q320.78-12.62 320.78-9.60L320.78-9.60L320.78-9.60Q320.78-4.99 317.21-2.30L317.21-2.30L317.21-2.30Q313.63 0.38 306.72 0.38L306.72 0.38L306.72 0.38Q303.79 0.38 301.18 0.26L301.18 0.26L301.18 0.26Q298.56 0.14 297.02-0.10L297.02-0.10zM307.06-3.41L307.06-3.41L307.06-3.41Q311.38-3.41 313.75-4.94L313.75-4.94L313.75-4.94Q316.13-6.48 316.13-9.41L316.13-9.41L316.13-9.41Q316.13-12.29 313.78-13.92L313.78-13.92L313.78-13.92Q311.42-15.55 307.06-15.55L307.06-15.55L301.58-15.55L301.58-3.70L301.58-3.70Q304.08-3.41 307.06-3.41zM301.58-19.10L306.86-19.10L306.86-19.10Q310.66-19.10 312.89-20.66L312.89-20.66L312.89-20.66Q315.12-22.22 315.12-24.77L315.12-24.77L315.12-24.77Q315.12-27.50 312.91-28.90L312.91-28.90L312.91-28.90Q310.70-30.29 306.86-30.29L306.86-30.29L306.86-30.29Q305.28-30.29 303.98-30.22L303.98-30.22L303.98-30.22Q302.69-30.14 301.58-30.05L301.58-30.05L301.58-19.10" fill="#199037" stroke="none" stroke-width="none" transform="translate(-331.4900150299072,14.268823827107754)" style="fill: rgb(25, 144, 55);"></path></g><g class="path" style="transform-origin: 23.333px -2.39851px; animation: 0.5s linear -0.157143s infinite normal forwards running tremble-9e637120-b5d5-4f58-848e-8b98eb7e7876; transform: matrix(1, 0, 0, 1, 0, 0);"><path d="M341.66-0.10L341.66-33.50L341.66-33.50Q343.92-33.74 346.08-33.86L346.08-33.86L346.08-33.86Q348.24-33.98 351.02-33.98L351.02-33.98L351.02-33.98Q355.34-33.98 358.46-32.64L358.46-32.64L358.46-32.64Q361.58-31.30 363.65-28.94L363.65-28.94L363.65-28.94Q365.71-26.59 366.70-23.47L366.70-23.47L366.70-23.47Q367.68-20.35 367.68-16.85L367.68-16.85L367.68-16.85Q367.68-13.34 366.67-10.20L366.67-10.20L366.67-10.20Q365.66-7.06 363.58-4.70L363.58-4.70L363.58-4.70Q361.49-2.35 358.25-0.98L358.25-0.98L358.25-0.98Q355.01 0.38 350.50 0.38L350.50 0.38L350.50 0.38Q347.76 0.38 345.72 0.26L345.72 0.26L345.72 0.26Q343.68 0.14 341.66-0.10L341.66-0.10zM350.88-30.05L350.88-30.05L350.88-30.05Q349.49-30.05 348.34-29.98L348.34-29.98L348.34-29.98Q347.18-29.90 346.22-29.81L346.22-29.81L346.22-3.84L346.22-3.84Q347.23-3.70 348.34-3.65L348.34-3.65L348.34-3.65Q349.44-3.60 350.64-3.60L350.64-3.60L350.64-3.60Q353.86-3.60 356.21-4.58L356.21-4.58L356.21-4.58Q358.56-5.57 360.07-7.32L360.07-7.32L360.07-7.32Q361.58-9.07 362.30-11.50L362.30-11.50L362.30-11.50Q363.02-13.92 363.02-16.85L363.02-16.85L363.02-16.85Q363.02-19.44 362.30-21.82L362.30-21.82L362.30-21.82Q361.58-24.19 360.10-26.04L360.10-26.04L360.10-26.04Q358.61-27.89 356.30-28.97L356.30-28.97L356.30-28.97Q354-30.05 350.88-30.05" fill="#199037" stroke="none" stroke-width="none" transform="translate(-331.4900150299072,14.268823827107754)" style="fill: rgb(25, 144, 55);"></path></g><g class="path" style="transform-origin: 52.9555px -1.94609px; animation: 0.5s linear -0.141429s infinite normal forwards running tremble-9e637120-b5d5-4f58-848e-8b98eb7e7876; transform: matrix(1, 0, 0, 1, 0, 0);"><path d="M374.40 0L374.40-33.60L394.56-33.60L394.56-29.66L378.96-29.66L378.96-19.44L392.40-19.44L392.40-15.60L378.96-15.60L378.96-3.94L394.56-3.94L394.56 0L374.40 0" fill="#199037" stroke="none" stroke-width="none" transform="translate(-331.4900150299072,14.268823827107754)" style="fill: rgb(25, 144, 55);"></path></g><g class="path" style="transform-origin: 80.3797px -2.65771px; animation: 0.5s linear -0.125714s infinite normal forwards running tremble-9e637120-b5d5-4f58-848e-8b98eb7e7876; transform: matrix(1, 0, 0, 1, 0, 0);"><path d="M409.54 0L397.20-32.40L401.66-34.13L412.22-4.99L422.83-33.98L426.96-32.40L414.67 0L409.54 0" fill="#199037" stroke="none" stroke-width="none" transform="translate(-331.4900150299072,14.268823827107754)" style="fill: rgb(25, 144, 55);"></path></g><g class="path" style="transform-origin: 110.463px -2.21834px; animation: 0.5s linear -0.11s infinite normal forwards running tremble-9e637120-b5d5-4f58-848e-8b98eb7e7876; transform: matrix(1, 0, 0, 1, 0, 0);"><path d="M431.76 0L431.76-33.60L451.92-33.60L451.92-29.66L436.32-29.66L436.32-19.44L449.76-19.44L449.76-15.60L436.32-15.60L436.32-3.94L451.92-3.94L451.92 0L431.76 0" fill="#199037" stroke="none" stroke-width="none" transform="translate(-331.4900150299072,14.268823827107754)" style="fill: rgb(25, 144, 55);"></path></g><g class="path" style="transform-origin: 136.664px -1.99507px; animation: 0.5s linear -0.0942857s infinite normal forwards running tremble-9e637120-b5d5-4f58-848e-8b98eb7e7876; transform: matrix(1, 0, 0, 1, 0, 0);"><path d="M478.37-4.08L478.37 0L458.40 0L458.40-33.60L462.96-33.60L462.96-4.08L478.37-4.08" fill="#199037" stroke="none" stroke-width="none" transform="translate(-331.4900150299072,14.268823827107754)" style="fill: rgb(25, 144, 55);"></path></g><g class="path" style="transform-origin: 163.994px -2.61667px; animation: 0.5s linear -0.0785714s infinite normal forwards running tremble-9e637120-b5d5-4f58-848e-8b98eb7e7876; transform: matrix(1, 0, 0, 1, 0, 0);"><path d="M479.09-16.85L479.09-16.85L479.09-16.85Q479.09-20.54 480.17-23.71L480.17-23.71L480.17-23.71Q481.25-26.88 483.29-29.21L483.29-29.21L483.29-29.21Q485.33-31.54 488.26-32.86L488.26-32.86L488.26-32.86Q491.18-34.18 494.93-34.18L494.93-34.18L494.93-34.18Q498.62-34.18 501.58-32.81L501.58-32.81L501.58-32.81Q504.53-31.44 506.57-29.09L506.57-29.09L506.57-29.09Q508.61-26.74 509.71-23.59L509.71-23.59L509.71-23.59Q510.82-20.45 510.82-16.85L510.82-16.85L510.82-16.85Q510.82-13.25 509.74-10.08L509.74-10.08L509.74-10.08Q508.66-6.91 506.59-4.54L506.59-4.54L506.59-4.54Q504.53-2.16 501.60-0.79L501.60-0.79L501.60-0.79Q498.67 0.58 494.93 0.58L494.93 0.58L494.93 0.58Q491.18 0.58 488.26-0.79L488.26-0.79L488.26-0.79Q485.33-2.16 483.29-4.54L483.29-4.54L483.29-4.54Q481.25-6.91 480.17-10.08L480.17-10.08L480.17-10.08Q479.09-13.25 479.09-16.85zM483.74-16.85L483.74-16.85L483.74-16.85Q483.74-14.26 484.49-11.81L484.49-11.81L484.49-11.81Q485.23-9.36 486.67-7.49L486.67-7.49L486.67-7.49Q488.11-5.62 490.20-4.49L490.20-4.49L490.20-4.49Q492.29-3.36 494.93-3.36L494.93-3.36L494.93-3.36Q497.71-3.36 499.80-4.39L499.80-4.39L499.80-4.39Q501.89-5.42 503.30-7.22L503.30-7.22L503.30-7.22Q504.72-9.02 505.44-11.50L505.44-11.50L505.44-11.50Q506.16-13.97 506.16-16.85L506.16-16.85L506.16-16.85Q506.16-19.44 505.39-21.84L505.39-21.84L505.39-21.84Q504.62-24.24 503.18-26.11L503.18-26.11L503.18-26.11Q501.74-27.98 499.66-29.11L499.66-29.11L499.66-29.11Q497.57-30.24 494.93-30.24L494.93-30.24L494.93-30.24Q492.29-30.24 490.20-29.21L490.20-29.21L490.20-29.21Q488.11-28.18 486.67-26.38L486.67-26.38L486.67-26.38Q485.23-24.58 484.49-22.13L484.49-22.13L484.49-22.13Q483.74-19.68 483.74-16.85" fill="#199037" stroke="none" stroke-width="none" transform="translate(-331.4900150299072,14.268823827107754)" style="fill: rgb(25, 144, 55);"></path></g><g class="path" style="transform-origin: 197.074px -2.13812px; animation: 0.5s linear -0.0628571s infinite normal forwards running tremble-9e637120-b5d5-4f58-848e-8b98eb7e7876; transform: matrix(1, 0, 0, 1, 0, 0);"><path d="M517.54 0L517.54-33.50L517.54-33.50Q519.55-33.74 521.88-33.86L521.88-33.86L521.88-33.86Q524.21-33.98 526.80-33.98L526.80-33.98L526.80-33.98Q529.92-33.98 532.37-33.22L532.37-33.22L532.37-33.22Q534.82-32.45 536.50-31.10L536.50-31.10L536.50-31.10Q538.18-29.76 539.04-27.86L539.04-27.86L539.04-27.86Q539.90-25.97 539.90-23.76L539.90-23.76L539.90-23.76Q539.90-21.07 538.87-18.98L538.87-18.98L538.87-18.98Q537.84-16.90 535.99-15.46L535.99-15.46L535.99-15.46Q534.14-14.02 531.55-13.27L531.55-13.27L531.55-13.27Q528.96-12.53 525.84-12.53L525.84-12.53L525.84-12.53Q523.82-12.53 522.10-12.67L522.10-12.67L522.10 0L517.54 0zM526.42-16.32L526.42-16.32L526.42-16.32Q530.74-16.32 533.06-18.22L533.06-18.22L533.06-18.22Q535.39-20.11 535.39-23.38L535.39-23.38L535.39-23.38Q535.39-26.50 533.16-28.32L533.16-28.32L533.16-28.32Q530.93-30.14 526.70-30.14L526.70-30.14L526.70-30.14Q525.41-30.14 524.26-30.10L524.26-30.10L524.26-30.10Q523.10-30.05 522.10-29.95L522.10-29.95L522.10-16.56L522.10-16.56Q522.86-16.46 523.94-16.39L523.94-16.39L523.94-16.39Q525.02-16.32 526.42-16.32" fill="#199037" stroke="none" stroke-width="none" transform="translate(-331.4900150299072,14.268823827107754)" style="fill: rgb(25, 144, 55);"></path></g><g class="path" style="transform-origin: 229.909px -2.12791px; animation: 0.5s linear -0.0471429s infinite normal forwards running tremble-9e637120-b5d5-4f58-848e-8b98eb7e7876; transform: matrix(1, 0, 0, 1, 0, 0);"><path d="M572.26 0L572.26-27.79L563.28-7.58L558.77-7.58L549.74-27.79L549.74 0L545.42 0L545.42-33.60L551.81-33.60L561.12-12.34L570.29-33.60L576.82-33.60L576.82 0L572.26 0" fill="#199037" stroke="none" stroke-width="none" transform="translate(-331.4900150299072,14.268823827107754)" style="fill: rgb(25, 144, 55);"></path></g><g class="path" style="transform-origin: 263.538px -3.20283px; animation: 0.5s linear -0.0314286s infinite normal forwards running tremble-9e637120-b5d5-4f58-848e-8b98eb7e7876; transform: matrix(1, 0, 0, 1, 0, 0);"><path d="M585.46 0L585.46-33.60L605.62-33.60L605.62-29.66L590.02-29.66L590.02-19.44L603.46-19.44L603.46-15.60L590.02-15.60L590.02-3.94L605.62-3.94L605.62 0L585.46 0" fill="#199037" stroke="none" stroke-width="none" transform="translate(-331.4900150299072,14.268823827107754)" style="fill: rgb(25, 144, 55);"></path></g><g class="path" style="transform-origin: 293.091px -1.61668px; animation: 0.5s linear -0.0157143s infinite normal forwards running tremble-9e637120-b5d5-4f58-848e-8b98eb7e7876; transform: matrix(1, 0, 0, 1, 0, 0);"><path d="M631.34 0L616.42-27.74L616.42 0L612.10 0L612.10-33.60L618.14-33.60L632.98-5.66L632.98-33.60L637.30-33.60L637.30 0L631.34 0" fill="#199037" stroke="none" stroke-width="none" transform="translate(-331.4900150299072,14.268823827107754)" style="fill: rgb(25, 144, 55);"></path></g><g class="path" style="transform-origin: 323.21px -2.53117px; animation: 0.5s linear 0s infinite normal forwards running tremble-9e637120-b5d5-4f58-848e-8b98eb7e7876; transform: matrix(1, 0, 0, 1, 0, 0);"><path d="M642.10-29.57L642.10-33.60L667.30-33.60L667.30-29.57L656.98-29.57L656.98 0L652.42 0L652.42-29.57L642.10-29.57" fill="#199037" stroke="none" stroke-width="none" transform="translate(-331.4900150299072,14.268823827107754)" style="fill: rgb(25, 144, 55);"></path></g></g>
</g>
<style id="tremble-9e637120-b5d5-4f58-848e-8b98eb7e7876" data-anikit="">@keyframes tremble-9e637120-b5d5-4f58-848e-8b98eb7e7876 {
  0% { transform: translate(0px,0px) rotate(0deg) scale(1) }
  3.33333% { transform: translate(-0.12615018264754452px,0.9698977821118335px) rotate(0deg) scale(1); animation-timing-function: linear }
  6.66667% { transform: translate(-0.5619766129265024px,-0.8834956645007898px) rotate(0deg) scale(1); animation-timing-function: linear }
  10% { transform: translate(0.453141551444475px,0.6694804390207767px) rotate(0deg) scale(1); animation-timing-function: linear }
  13.33333% { transform: translate(-0.3370664187988621px,0.5574421086412933px) rotate(0deg) scale(1); animation-timing-function: linear }
  16.66667% { transform: translate(0.8757850658430284px,-0.34267586284722573px) rotate(0deg) scale(1); animation-timing-function: linear }
  20% { transform: translate(-0.8078957184754297px,0.9946198880302146px) rotate(0deg) scale(1); animation-timing-function: linear }
  23.33333% { transform: translate(0.7270980696559657px,-0.14172867092182806px) rotate(0deg) scale(1); animation-timing-function: linear }
  26.66667% { transform: translate(-0.999440595260007px,0.37439598865251655px) rotate(0deg) scale(1); animation-timing-function: linear }
  30% { transform: translate(0.9872372658375417px,0.8081860061166029px) rotate(0deg) scale(1); animation-timing-function: linear }
  33.33333% { transform: translate(-0.9592602399818849px,-0.7680026042383505px) rotate(0deg) scale(1); animation-timing-function: linear }
  36.66667% { transform: translate(0.9060947861836881px,0.8989009211917853px) rotate(0deg) scale(1); animation-timing-function: linear }
  40% { transform: translate(-0.9522270459170356px,0.20606909520901184px) rotate(0deg) scale(1); animation-timing-function: linear }
  43.33333% { transform: translate(0.9831449526833496px,-0.9992616779089113px) rotate(0deg) scale(1); animation-timing-function: linear }
  46.66667% { transform: translate(-0.6160150062213702px,0.9610644092985385px) rotate(0deg) scale(1); animation-timing-function: linear }
  50% { transform: translate(0.7104664934976335px,-0.5020374617331373px) rotate(0deg) scale(1); animation-timing-function: linear }
  53.33333% { transform: translate(-0.7935666840812218px,-0.7165598387038524px) rotate(0deg) scale(1); animation-timing-function: linear }
  56.66667% { transform: translate(0.19218446082439922px,0.5289134353453799px) rotate(0deg) scale(1); animation-timing-function: linear }
  60% { transform: translate(-0.31444758182943544px,-0.9519256253140553px) rotate(0deg) scale(1); animation-timing-function: linear }
  63.33333% { transform: translate(0.43168635354162377px,-0.06530224722951339px) rotate(0deg) scale(1); animation-timing-function: linear }
  66.66667% { transform: translate(0.27337416005034076px,-0.1752789095075209px) rotate(0deg) scale(1); animation-timing-function: linear }
  70% { transform: translate(-0.14984552198402024px,-0.9121999866105953px) rotate(0deg) scale(1); animation-timing-function: linear }
  73.33333% { transform: translate(0.023921750817491372px,0.6195431224826276px) rotate(0deg) scale(1); animation-timing-function: linear }
  76.66667% { transform: translate(-0.6795767410857682px,-0.7893185595278053px) rotate(0deg) scale(1); animation-timing-function: linear }
  80% { transform: translate(0.5816031088249554px,-0.4032926511505005px) rotate(0deg) scale(1); animation-timing-function: linear }
  83.33333% { transform: translate(-0.4743367541507919px,0.985732169363239px) rotate(0deg) scale(1); animation-timing-function: linear }
  86.66667% { transform: translate(0.9382276109173351px,-0.9973794650381614px) rotate(0deg) scale(1); animation-timing-function: linear }
  90% { transform: translate(-0.887081560498492px,0.31304433414445176px) rotate(0deg) scale(1); animation-timing-function: linear }
  93.33333% { transform: translate(0.8217623590388019px,0.8449190432267653px) rotate(0deg) scale(1); animation-timing-function: linear }
  96.66667% { transform: translate(-0.9931677836265367px,-0.6924475366821162px) rotate(0deg) scale(1); animation-timing-function: linear }
  100% { transform: translate(0,0) rotate(0) scale(1) }
}</style><style id="tremble-9e637120-b5d5-4f58-848e-8b98eb7e7876" data-anikit="">@keyframes tremble-9e637120-b5d5-4f58-848e-8b98eb7e7876 {
  0% { transform: translate(0px,0px) rotate(0deg) scale(1) }
  3.33333% { transform: translate(-0.12615018264754452px,0.9698977821118335px) rotate(0deg) scale(1); animation-timing-function: linear }
  6.66667% { transform: translate(-0.5619766129265024px,-0.8834956645007898px) rotate(0deg) scale(1); animation-timing-function: linear }
  10% { transform: translate(0.453141551444475px,0.6694804390207767px) rotate(0deg) scale(1); animation-timing-function: linear }
  13.33333% { transform: translate(-0.3370664187988621px,0.5574421086412933px) rotate(0deg) scale(1); animation-timing-function: linear }
  16.66667% { transform: translate(0.8757850658430284px,-0.34267586284722573px) rotate(0deg) scale(1); animation-timing-function: linear }
  20% { transform: translate(-0.8078957184754297px,0.9946198880302146px) rotate(0deg) scale(1); animation-timing-function: linear }
  23.33333% { transform: translate(0.7270980696559657px,-0.14172867092182806px) rotate(0deg) scale(1); animation-timing-function: linear }
  26.66667% { transform: translate(-0.999440595260007px,0.37439598865251655px) rotate(0deg) scale(1); animation-timing-function: linear }
  30% { transform: translate(0.9872372658375417px,0.8081860061166029px) rotate(0deg) scale(1); animation-timing-function: linear }
  33.33333% { transform: translate(-0.9592602399818849px,-0.7680026042383505px) rotate(0deg) scale(1); animation-timing-function: linear }
  36.66667% { transform: translate(0.9060947861836881px,0.8989009211917853px) rotate(0deg) scale(1); animation-timing-function: linear }
  40% { transform: translate(-0.9522270459170356px,0.20606909520901184px) rotate(0deg) scale(1); animation-timing-function: linear }
  43.33333% { transform: translate(0.9831449526833496px,-0.9992616779089113px) rotate(0deg) scale(1); animation-timing-function: linear }
  46.66667% { transform: translate(-0.6160150062213702px,0.9610644092985385px) rotate(0deg) scale(1); animation-timing-function: linear }
  50% { transform: translate(0.7104664934976335px,-0.5020374617331373px) rotate(0deg) scale(1); animation-timing-function: linear }
  53.33333% { transform: translate(-0.7935666840812218px,-0.7165598387038524px) rotate(0deg) scale(1); animation-timing-function: linear }
  56.66667% { transform: translate(0.19218446082439922px,0.5289134353453799px) rotate(0deg) scale(1); animation-timing-function: linear }
  60% { transform: translate(-0.31444758182943544px,-0.9519256253140553px) rotate(0deg) scale(1); animation-timing-function: linear }
  63.33333% { transform: translate(0.43168635354162377px,-0.06530224722951339px) rotate(0deg) scale(1); animation-timing-function: linear }
  66.66667% { transform: translate(0.27337416005034076px,-0.1752789095075209px) rotate(0deg) scale(1); animation-timing-function: linear }
  70% { transform: translate(-0.14984552198402024px,-0.9121999866105953px) rotate(0deg) scale(1); animation-timing-function: linear }
  73.33333% { transform: translate(0.023921750817491372px,0.6195431224826276px) rotate(0deg) scale(1); animation-timing-function: linear }
  76.66667% { transform: translate(-0.6795767410857682px,-0.7893185595278053px) rotate(0deg) scale(1); animation-timing-function: linear }
  80% { transform: translate(0.5816031088249554px,-0.4032926511505005px) rotate(0deg) scale(1); animation-timing-function: linear }
  83.33333% { transform: translate(-0.4743367541507919px,0.985732169363239px) rotate(0deg) scale(1); animation-timing-function: linear }
  86.66667% { transform: translate(0.9382276109173351px,-0.9973794650381614px) rotate(0deg) scale(1); animation-timing-function: linear }
  90% { transform: translate(-0.887081560498492px,0.31304433414445176px) rotate(0deg) scale(1); animation-timing-function: linear }
  93.33333% { transform: translate(0.8217623590388019px,0.8449190432267653px) rotate(0deg) scale(1); animation-timing-function: linear }
  96.66667% { transform: translate(-0.9931677836265367px,-0.6924475366821162px) rotate(0deg) scale(1); animation-timing-function: linear }
  100% { transform: translate(0,0) rotate(0) scale(1) }
}</style></svg>